<svg width="143" height="66" viewBox="0 0 143 66" fill="none" xmlns="http://www.w3.org/2000/svg">
<path d="M34.448 41.256C32.2933 41.256 30.416 40.7973 28.816 39.88C27.216 38.9413 25.9893 37.608 25.136 35.88C24.2827 34.1307 23.856 32.072 23.856 29.704C23.856 27.3573 24.2827 25.32 25.136 23.592C25.9893 21.8427 27.216 20.5093 28.816 19.592C30.416 18.6533 32.2933 18.184 34.448 18.184C35.856 18.184 37.1893 18.408 38.448 18.856C39.7067 19.2827 40.8053 19.912 41.744 20.744C42.1493 21.064 42.352 21.4907 42.352 22.024C42.352 22.408 42.2453 22.7387 42.032 23.016C41.8187 23.272 41.5627 23.4 41.264 23.4C40.9013 23.4 40.5493 23.2613 40.208 22.984C39.184 22.216 38.2453 21.6827 37.392 21.384C36.56 21.064 35.6107 20.904 34.544 20.904C32.1973 20.904 30.3947 21.6613 29.136 23.176C27.8773 24.6907 27.248 26.8667 27.248 29.704C27.248 32.5627 27.8773 34.7493 29.136 36.264C30.3947 37.7787 32.1973 38.536 34.544 38.536C35.568 38.536 36.496 38.376 37.328 38.056C38.1813 37.736 39.1413 37.2027 40.208 36.456C40.6347 36.1787 40.9867 36.04 41.264 36.04C41.5627 36.04 41.8187 36.1787 42.032 36.456C42.2453 36.712 42.352 37.032 42.352 37.416C42.352 37.9493 42.1493 38.376 41.744 38.696C40.8053 39.528 39.7067 40.168 38.448 40.616C37.1893 41.0427 35.856 41.256 34.448 41.256ZM52.1438 25C54.2131 25 55.7491 25.5227 56.7518 26.568C57.7758 27.6133 58.2878 29.2027 58.2878 31.336V39.624C58.2878 40.1147 58.1491 40.4987 57.8718 40.776C57.5944 41.032 57.2104 41.16 56.7198 41.16C56.2504 41.16 55.8771 41.0213 55.5998 40.744C55.3224 40.4667 55.1838 40.0933 55.1838 39.624V38.44C54.7784 39.336 54.1704 40.0293 53.3598 40.52C52.5704 40.9893 51.6424 41.224 50.5758 41.224C49.5518 41.224 48.6131 41.0213 47.7598 40.616C46.9278 40.1893 46.2664 39.6133 45.7758 38.888C45.2851 38.1627 45.0398 37.3413 45.0398 36.424C45.0184 35.272 45.3064 34.376 45.9038 33.736C46.5011 33.0747 47.4718 32.6053 48.8158 32.328C50.1598 32.0293 52.0264 31.88 54.4158 31.88H55.1518V30.952C55.1518 29.7573 54.9064 28.8933 54.4158 28.36C53.9251 27.8267 53.1358 27.56 52.0478 27.56C51.3011 27.56 50.5971 27.656 49.9358 27.848C49.2744 28.04 48.5491 28.3173 47.7598 28.68C47.1838 29 46.7784 29.16 46.5438 29.16C46.2238 29.16 45.9571 29.0427 45.7438 28.808C45.5518 28.5733 45.4557 28.2747 45.4557 27.912C45.4557 27.592 45.5411 27.3147 45.7118 27.08C45.9038 26.824 46.2024 26.5787 46.6078 26.344C47.3544 25.9387 48.2291 25.6187 49.2318 25.384C50.2344 25.128 51.2051 25 52.1438 25ZM51.1518 38.824C52.3251 38.824 53.2851 38.4293 54.0318 37.64C54.7784 36.8293 55.1518 35.7947 55.1518 34.536V33.704H54.5758C52.9118 33.704 51.6318 33.7787 50.7358 33.928C49.8398 34.0773 49.1998 34.3333 48.8158 34.696C48.4318 35.0373 48.2398 35.5387 48.2398 36.2C48.2398 36.968 48.5171 37.5973 49.0718 38.088C49.6264 38.5787 50.3198 38.824 51.1518 38.824ZM70.3568 38.696C70.8261 38.7387 71.1568 38.8667 71.3488 39.08C71.5621 39.272 71.6688 39.5493 71.6688 39.912C71.6688 40.3387 71.4981 40.6693 71.1568 40.904C70.8368 41.1173 70.3568 41.2027 69.7168 41.16L68.8528 41.096C67.1248 40.968 65.8341 40.4453 64.9808 39.528C64.1274 38.5893 63.7008 37.2133 63.7008 35.4V27.88H61.7808C60.8421 27.88 60.3727 27.464 60.3727 26.632C60.3727 26.248 60.4901 25.9493 60.7248 25.736C60.9808 25.5013 61.3328 25.384 61.7808 25.384H63.7008V22.088C63.7008 21.5973 63.8394 21.2133 64.1168 20.936C64.4154 20.6587 64.8101 20.52 65.3008 20.52C65.7914 20.52 66.1861 20.6587 66.4848 20.936C66.7834 21.2133 66.9328 21.5973 66.9328 22.088V25.384H70.1008C70.5488 25.384 70.8901 25.5013 71.1248 25.736C71.3808 25.9493 71.5088 26.248 71.5088 26.632C71.5088 27.0373 71.3808 27.3467 71.1248 27.56C70.8901 27.7733 70.5488 27.88 70.1008 27.88H66.9328V35.624C66.9328 36.6267 67.1354 37.3627 67.5408 37.832C67.9674 38.3013 68.6074 38.568 69.4608 38.632L70.3568 38.696ZM80.678 41.224C79.1633 41.224 77.83 40.8933 76.678 40.232C75.5473 39.5707 74.662 38.632 74.022 37.416C73.4033 36.2 73.094 34.792 73.094 33.192C73.094 31.5707 73.414 30.1413 74.054 28.904C74.7153 27.6667 75.6327 26.7067 76.806 26.024C77.9793 25.3413 79.3233 25 80.838 25C81.6487 25 82.4593 25.1173 83.27 25.352C84.102 25.5867 84.838 25.9067 85.478 26.312C86.1607 26.7813 86.502 27.3253 86.502 27.944C86.502 28.3067 86.406 28.616 86.214 28.872C86.022 29.1067 85.7767 29.224 85.478 29.224C85.286 29.224 85.094 29.1813 84.902 29.096C84.71 28.9893 84.4647 28.84 84.166 28.648C83.6327 28.3067 83.1313 28.0507 82.662 27.88C82.214 27.688 81.67 27.592 81.03 27.592C79.5793 27.592 78.4487 28.0827 77.638 29.064C76.8487 30.0453 76.454 31.4107 76.454 33.16C76.454 34.9093 76.8487 36.264 77.638 37.224C78.4273 38.1627 79.5473 38.632 80.998 38.632C81.638 38.632 82.2033 38.536 82.694 38.344C83.1847 38.152 83.686 37.896 84.198 37.576C84.4327 37.4267 84.6673 37.2987 84.902 37.192C85.1367 37.0853 85.35 37.032 85.542 37.032C85.8407 37.032 86.086 37.16 86.278 37.416C86.47 37.6507 86.566 37.9493 86.566 38.312C86.566 38.6107 86.4807 38.888 86.31 39.144C86.1607 39.3787 85.894 39.624 85.51 39.88C84.87 40.3067 84.1233 40.6373 83.27 40.872C82.4167 41.1067 81.5527 41.224 80.678 41.224ZM97.9068 25C101.619 25 103.475 27.1013 103.475 31.304V39.624C103.475 40.0933 103.325 40.4667 103.027 40.744C102.728 41.0213 102.333 41.16 101.843 41.16C101.352 41.16 100.957 41.0213 100.659 40.744C100.381 40.4667 100.243 40.0933 100.243 39.624V31.336C100.243 30.056 99.9761 29.1173 99.4428 28.52C98.9308 27.9227 98.1201 27.624 97.0108 27.624C95.7094 27.624 94.6641 28.0293 93.8748 28.84C93.0854 29.6507 92.6908 30.7387 92.6908 32.104V39.624C92.6908 40.0933 92.5414 40.4667 92.2428 40.744C91.9654 41.0213 91.5814 41.16 91.0908 41.16C90.6001 41.16 90.2054 41.0213 89.9068 40.744C89.6081 40.4667 89.4588 40.0933 89.4588 39.624V19.816C89.4588 19.3467 89.6081 18.9733 89.9068 18.696C90.2268 18.4187 90.6321 18.28 91.1228 18.28C91.5921 18.28 91.9654 18.4187 92.2428 18.696C92.5414 18.952 92.6908 19.304 92.6908 19.752V27.752C93.2241 26.856 93.9388 26.1733 94.8348 25.704C95.7308 25.2347 96.7548 25 97.9068 25Z" fill="white"/>
<path d="M46.432 44.064C47.456 44 47.968 44.4373 47.968 45.376C47.968 45.8453 47.8507 46.1973 47.616 46.432C47.3813 46.6667 46.976 46.8053 46.4 46.848L45.44 46.944C44.096 47.072 43.0933 47.5413 42.432 48.352C41.792 49.1627 41.472 50.144 41.472 51.296V58.624C41.472 59.136 41.3227 59.52 41.024 59.776C40.7253 60.032 40.3413 60.16 39.872 60.16C39.4027 60.16 39.008 60.032 38.688 59.776C38.3893 59.52 38.24 59.136 38.24 58.624V45.6C38.24 45.1093 38.3893 44.736 38.688 44.48C39.008 44.2027 39.4027 44.064 39.872 44.064C40.2987 44.064 40.6507 44.2027 40.928 44.48C41.2267 44.736 41.376 45.0987 41.376 45.568V47.104C41.8027 46.1653 42.4213 45.4507 43.232 44.96C44.0427 44.4693 44.96 44.1813 45.984 44.096L46.432 44.064ZM61.8703 56.064C62.1689 56.064 62.4143 56.1813 62.6063 56.416C62.7983 56.6507 62.8943 56.9493 62.8943 57.312C62.8943 57.9307 62.5103 58.4533 61.7423 58.88C60.9956 59.3067 60.1743 59.6373 59.2783 59.872C58.4036 60.1067 57.5609 60.224 56.7503 60.224C54.2756 60.224 52.3236 59.5093 50.8943 58.08C49.4649 56.6293 48.7503 54.656 48.7503 52.16C48.7503 50.56 49.0596 49.1413 49.6783 47.904C50.3183 46.6667 51.2036 45.7067 52.3343 45.024C53.4863 44.3413 54.7876 44 56.2383 44C58.3289 44 59.9823 44.672 61.1983 46.016C62.4143 47.36 63.0223 49.1733 63.0223 51.456C63.0223 52.3093 62.6383 52.736 61.8703 52.736H51.9823C52.1956 56.0427 53.7849 57.696 56.7503 57.696C57.5396 57.696 58.2223 57.5893 58.7983 57.376C59.3743 57.1627 59.9823 56.8853 60.6223 56.544C60.6863 56.5013 60.8569 56.416 61.1343 56.288C61.4329 56.1387 61.6783 56.064 61.8703 56.064ZM56.3023 46.368C55.0649 46.368 54.0729 46.7627 53.3263 47.552C52.5796 48.3413 52.1316 49.4507 51.9823 50.88H60.2383C60.1743 49.4293 59.8009 48.32 59.1183 47.552C58.4569 46.7627 57.5183 46.368 56.3023 46.368ZM74.9678 44C76.3118 44 77.5064 44.3413 78.5518 45.024C79.6184 45.7067 80.4398 46.6667 81.0158 47.904C81.6131 49.1413 81.9118 50.5707 81.9118 52.192C81.9118 53.792 81.6238 55.2 81.0478 56.416C80.4718 57.632 79.6504 58.5707 78.5838 59.232C77.5384 59.8933 76.3331 60.224 74.9678 60.224C73.7944 60.224 72.7598 59.9787 71.8638 59.488C70.9678 58.976 70.2851 58.2507 69.8158 57.312V64.448C69.8158 64.896 69.6664 65.248 69.3678 65.504C69.0904 65.7813 68.7171 65.92 68.2478 65.92C67.7571 65.92 67.3518 65.7813 67.0318 65.504C66.7331 65.2267 66.5838 64.8533 66.5838 64.384V45.632C66.5838 45.1627 66.7331 44.7893 67.0318 44.512C67.3304 44.2133 67.7251 44.064 68.2158 44.064C68.6851 44.064 69.0691 44.2133 69.3678 44.512C69.6664 44.7893 69.8158 45.1627 69.8158 45.632V46.944C70.2851 46.0053 70.9678 45.28 71.8638 44.768C72.7598 44.256 73.7944 44 74.9678 44ZM74.1998 57.664C75.6078 57.664 76.6958 57.1947 77.4638 56.256C78.2318 55.296 78.6158 53.9413 78.6158 52.192C78.6158 50.4213 78.2211 49.0453 77.4318 48.064C76.6638 47.0827 75.5864 46.592 74.1998 46.592C72.7918 46.592 71.7038 47.072 70.9358 48.032C70.1891 48.992 69.8158 50.3573 69.8158 52.128C69.8158 53.8987 70.1891 55.264 70.9358 56.224C71.7038 57.184 72.7918 57.664 74.1998 57.664ZM92.274 60.224C90.738 60.224 89.3833 59.8933 88.21 59.232C87.058 58.5707 86.162 57.632 85.522 56.416C84.9033 55.1787 84.594 53.7493 84.594 52.128C84.594 50.4853 84.9033 49.056 85.522 47.84C86.162 46.6027 87.058 45.6533 88.21 44.992C89.3833 44.3307 90.738 44 92.274 44C93.81 44 95.154 44.3307 96.306 44.992C97.4793 45.6533 98.3753 46.6027 98.994 47.84C99.634 49.056 99.954 50.4853 99.954 52.128C99.954 53.7493 99.634 55.1787 98.994 56.416C98.3753 57.632 97.4793 58.5707 96.306 59.232C95.154 59.8933 93.81 60.224 92.274 60.224ZM92.274 57.664C93.7033 57.664 94.7913 57.1947 95.538 56.256C96.306 55.3173 96.69 53.9413 96.69 52.128C96.69 50.336 96.306 48.9707 95.538 48.032C94.77 47.072 93.682 46.592 92.274 46.592C90.866 46.592 89.778 47.072 89.01 48.032C88.242 48.9707 87.858 50.336 87.858 52.128C87.858 53.9413 88.2313 55.3173 88.978 56.256C89.746 57.1947 90.8447 57.664 92.274 57.664ZM111.745 44.064C112.769 44 113.281 44.4373 113.281 45.376C113.281 45.8453 113.163 46.1973 112.929 46.432C112.694 46.6667 112.289 46.8053 111.713 46.848L110.753 46.944C109.409 47.072 108.406 47.5413 107.745 48.352C107.105 49.1627 106.785 50.144 106.785 51.296V58.624C106.785 59.136 106.635 59.52 106.337 59.776C106.038 60.032 105.654 60.16 105.185 60.16C104.715 60.16 104.321 60.032 104.001 59.776C103.702 59.52 103.553 59.136 103.553 58.624V45.6C103.553 45.1093 103.702 44.736 104.001 44.48C104.321 44.2027 104.715 44.064 105.185 44.064C105.611 44.064 105.963 44.2027 106.241 44.48C106.539 44.736 106.689 45.0987 106.689 45.568V47.104C107.115 46.1653 107.734 45.4507 108.545 44.96C109.355 44.4693 110.273 44.1813 111.297 44.096L111.745 44.064ZM124.263 57.696C124.732 57.7387 125.063 57.8667 125.255 58.08C125.468 58.272 125.575 58.5493 125.575 58.912C125.575 59.3387 125.404 59.6693 125.063 59.904C124.743 60.1173 124.263 60.2027 123.623 60.16L122.759 60.096C121.031 59.968 119.74 59.4453 118.887 58.528C118.034 57.5893 117.607 56.2133 117.607 54.4V46.88H115.687C114.748 46.88 114.279 46.464 114.279 45.632C114.279 45.248 114.396 44.9493 114.631 44.736C114.887 44.5013 115.239 44.384 115.687 44.384H117.607V41.088C117.607 40.5973 117.746 40.2133 118.023 39.936C118.322 39.6587 118.716 39.52 119.207 39.52C119.698 39.52 120.092 39.6587 120.391 39.936C120.69 40.2133 120.839 40.5973 120.839 41.088V44.384H124.007C124.455 44.384 124.796 44.5013 125.031 44.736C125.287 44.9493 125.415 45.248 125.415 45.632C125.415 46.0373 125.287 46.3467 125.031 46.56C124.796 46.7733 124.455 46.88 124.007 46.88H120.839V54.624C120.839 55.6267 121.042 56.3627 121.447 56.832C121.874 57.3013 122.514 57.568 123.367 57.632L124.263 57.696ZM133.336 60.224C131.16 60.224 129.379 59.776 127.992 58.88C127.608 58.6453 127.331 58.4 127.16 58.144C127.011 57.888 126.936 57.6 126.936 57.28C126.936 56.9387 127.032 56.6507 127.224 56.416C127.416 56.1813 127.662 56.064 127.96 56.064C128.238 56.064 128.675 56.2347 129.272 56.576C129.912 56.9173 130.531 57.1947 131.128 57.408C131.747 57.6213 132.515 57.728 133.432 57.728C134.456 57.728 135.256 57.5467 135.832 57.184C136.408 56.8213 136.696 56.3093 136.696 55.648C136.696 55.2213 136.579 54.88 136.344 54.624C136.131 54.368 135.747 54.144 135.192 53.952C134.638 53.7387 133.816 53.5147 132.728 53.28C130.851 52.8747 129.496 52.3307 128.664 51.648C127.854 50.944 127.448 49.9947 127.448 48.8C127.448 47.8827 127.715 47.0613 128.248 46.336C128.782 45.5893 129.518 45.0133 130.456 44.608C131.395 44.2027 132.462 44 133.656 44C134.51 44 135.342 44.1173 136.152 44.352C136.963 44.5653 137.678 44.8853 138.296 45.312C139 45.7813 139.352 46.3253 139.352 46.944C139.352 47.2853 139.246 47.5733 139.032 47.808C138.84 48.0427 138.606 48.16 138.328 48.16C138.136 48.16 137.944 48.1173 137.752 48.032C137.56 47.9467 137.304 47.808 136.984 47.616C136.408 47.2747 135.864 47.008 135.352 46.816C134.862 46.624 134.243 46.528 133.496 46.528C132.6 46.528 131.875 46.72 131.32 47.104C130.787 47.488 130.52 48.0107 130.52 48.672C130.52 49.2693 130.766 49.7387 131.256 50.08C131.768 50.4 132.718 50.7093 134.104 51.008C135.534 51.3067 136.654 51.648 137.464 52.032C138.275 52.416 138.851 52.896 139.192 53.472C139.555 54.0267 139.736 54.7413 139.736 55.616C139.736 57.0027 139.15 58.1227 137.976 58.976C136.824 59.808 135.278 60.224 133.336 60.224Z" fill="white"/>
<path d="M43.0445 6.52148C43.0445 6.52148 27.018 47.2248 23.759 50.0083C20.5 52.7918 16.9317 53.8957 13 54C9.06829 54.1043 6.00001 52 4.02154 50.0083C2.04307 48.0166 1.01642 44.2191 1.00821 41.6095C1.00001 39 1.76156 35.0432 2.66556 33.5162C3.56956 31.9891 8.99359 27.2553 8.99359 27.2553" stroke="white" stroke-width="2"/>
<path d="M12.392 20.8919L9.43889 30.3406L6.48575 39.7892L3.12433 32.2584L12.392 20.8919Z" fill="white"/>
<circle cx="40.4" cy="4.4" r="3.4" stroke="white" stroke-width="2"/>
</svg>
